Coordinates
version=1
nRows=9
nColumns=24
inDegrees=yes

Units are S.I. units (second, meters, Newtons, ...)
Angles are in degrees.

endheader
time	pelvis_tilt	pelvis_list	pelvis_rotation	pelvis_tx	pelvis_ty	pelvis_tz	hip_flexion_r	hip_adduction_r	hip_rotation_r	knee_angle_r	ankle_angle_r	subtalar_angle_r	mtp_angle_r	hip_flexion_l	hip_adduction_l	hip_rotation_l	knee_angle_l	ankle_angle_l	subtalar_angle_l	mtp_angle_l	lumbar_extension	lumbar_bending	lumbar_rotation
      4.45000000	     -0.68540447	     -1.51040322	     -6.92033029	     -0.83279818	      0.90861765	      0.23572090	    -11.63208273	      5.30309574	      9.69579486	    -23.48051740	     25.07331421	     -5.18343896	      0.00000000	     29.41187282	     -2.54487170	     -4.53087821	    -10.81087150	     11.31002480	     -8.02648765	      0.00000000	    -12.38351452	     -3.17639059	     -1.44201602
      4.45500000	     -0.72053633	     -1.36635969	     -6.84612982	     -0.82466818	      0.90758413	      0.23482353	    -11.67252316	      4.94643327	      8.96285359	    -24.24656300	     24.87081436	     -4.21562465	      0.00000000	     29.63897840	     -2.33479616	     -4.81936938	    -11.84619048	     11.08179546	     -7.83956269	      0.00000000	    -12.26284122	     -3.32700457	     -1.60022015
      4.46000000	     -0.77349048	     -1.18598134	     -6.75875030	     -0.81650669	      0.90659321	      0.23390241	    -11.64343531	      4.55279461	      8.19787246	    -25.09172138	     24.58785620	     -3.25235291	      0.00000000	     29.87765919	     -2.08528836	     -5.07068826	    -12.89532493	     10.71569294	     -7.68513689	      0.00000000	    -12.11588504	     -3.52227726	     -1.78042519
      4.46500000	     -0.84427207	     -0.96144857	     -6.65241120	     -0.80833642	      0.90565281	      0.23293386	    -11.53756805	      4.11802906	      7.42362666	    -26.02760437	     24.21393642	     -2.32414804	      0.00000000	     30.13092904	     -1.78232292	     -5.27124544	    -13.94311239	     10.21509762	     -7.58626231	      0.00000000	    -11.94622918	     -3.76152685	     -1.98259361
      4.47000000	     -0.94009150	     -0.68682363	     -6.53752042	     -0.80019809	      0.90475695	      0.23194379	    -11.33271469	      3.63103479	      6.62190237	    -27.07270029	     23.76902541	     -1.40215085	      0.00000000	     30.41257723	     -1.42435377	     -5.39523795	    -14.99061414	      9.59356477	     -7.56019693	      0.00000000	    -11.75231306	     -4.06070738	     -2.21022091
      4.47500000	     -1.05700232	     -0.36039719	     -6.39613349	     -0.79207535	      0.90394272	      0.23092359	    -11.04496565	      3.09952280	      5.82230138	    -28.20498132	     23.20252820	     -0.54543720	      0.00000000	     30.71756288	     -0.99993825	     -5.45647885	    -16.02575754	      8.87362418	     -7.60013091	      0.00000000	    -11.53343998	     -4.41859136	     -2.46539800
      4.48000000	     -1.20272483	     -0.00080388	     -6.23212536	     -0.78401793	      0.90320058	      0.22981920	    -10.65409863	      2.53328382	      5.02112464	    -29.44372597	     22.52281169	      0.30045302	      0.00000000	     31.05816658	     -0.51882330	     -5.42309732	    -17.05067539	      8.06851170	     -7.75620781	      0.00000000	    -11.29260500	     -4.80115158	     -2.70895189
      4.48500000	     -1.35999372	      0.42691527	     -6.04747213	     -0.77594898	      0.90253061	      0.22873629	    -10.19047197	      1.91038809	      4.25021946	    -30.77057442	     21.71409958	      1.02277881	      0.00000000	     31.41974259	      0.04012159	     -5.35239086	    -18.09073101	      7.30408992	     -7.92660314	      0.00000000	    -11.03390022	     -5.27270063	     -3.00336182
      4.49000000	     -1.52936400	      0.89203527	     -5.85408414	     -0.76790521	      0.90192632	      0.22764454	     -9.64567334	      1.25210135	      3.51600949	    -32.19895902	     20.77348844	      1.67199877	      0.00000000	     31.80372337	      0.65057460	     -5.22252026	    -19.15201747	      6.58683536	     -8.16407320	      0.00000000	    -10.76114434	     -5.78984031	     -3.30361133
